<svg xmlns="http://www.w3.org/2000/svg" width="30" height="30"><path d="M16.875 1.875A1.87 1.87 0 0 0 15 0a1.87 1.87 0 0 0-1.875 1.875V15A1.87 1.87 0 0 0 15 16.875 1.87 1.87 0 0 0 16.875 15ZM8.406 7.066c.797-.66.906-1.847.242-2.644a1.88 1.88 0 0 0-2.64-.238A14.053 14.053 0 0 0 .938 15c0 7.766 6.296 14.063 14.062 14.063 7.766 0 14.063-6.297 14.063-14.063 0-4.348-1.981-8.238-5.075-10.816a1.888 1.888 0 0 0-2.644.238 1.888 1.888 0 0 0 .242 2.644A10.282 10.282 0 0 1 25.305 15c0 5.695-4.617 10.313-10.313 10.313C9.297 25.313 4.68 20.694 4.68 15c0-3.188 1.449-6.04 3.722-7.934Zm0 0" style="stroke:none;fill-rule:nonzero;fill:#000;fill-opacity:1"/></svg>